<svg version="1.1" id="Layer_1" xmlns="http://www.w3.org/2000/svg"  x="0px" y="0px"
	 viewBox="0 0 512 512" style="enable-background:new 0 0 512 512;" xml:space="preserve">
<circle style="fill:#FFDE55;" cx="255.994" cy="255.994" r="132.528"/>
<path style="fill:#F2D546;" d="M287.014,357.51c-56.062,0-101.51-45.447-101.51-101.51s45.447-101.51,101.51-101.51
	c56.062,0,101.51,45.447,101.51,101.51c0-73.191-59.334-132.525-132.525-132.525S123.475,182.809,123.475,256
	S182.809,388.525,256,388.525S388.525,329.191,388.525,256C388.525,312.062,343.078,357.51,287.014,357.51z"/>
<path style="fill:#FFED9F;" d="M256,123.475c-2.966,0-5.908,0.108-8.826,0.3C316.25,128.318,370.873,185.775,370.873,256
	S316.25,383.682,247.174,388.225c2.918,0.192,5.859,0.3,8.826,0.3c73.192,0,132.525-59.334,132.525-132.525
	S329.191,123.475,256,123.475z"/>
<g>
	<path style="fill:#FFDE55;" d="M256,87.504c-3.598,0-6.516-2.917-6.516-6.516V6.516C249.484,2.917,252.402,0,256,0
		c3.598,0,6.516,2.917,6.516,6.516v74.473C262.516,84.587,259.598,87.504,256,87.504z"/>
	<path style="fill:#FFDE55;" d="M256,512c-3.598,0-6.516-2.917-6.516-6.516v-74.473c0-3.599,2.918-6.516,6.516-6.516
		c3.598,0,6.516,2.917,6.516,6.516v74.473C262.516,509.083,259.598,512,256,512z"/>
	<path style="fill:#FFDE55;" d="M379.751,138.764c-1.668,0-3.335-0.636-4.607-1.908c-2.545-2.545-2.545-6.67,0-9.214l52.661-52.661
		c2.543-2.545,6.672-2.543,9.213,0c2.545,2.545,2.545,6.67,0,9.214l-52.661,52.661C383.086,138.127,381.418,138.764,379.751,138.764
		z"/>
	<path style="fill:#FFDE55;" d="M79.588,438.928c-1.668,0-3.335-0.636-4.607-1.908c-2.545-2.545-2.545-6.67,0-9.214l52.66-52.659
		c2.542-2.543,6.671-2.545,9.213,0c2.545,2.545,2.545,6.67,0,9.214l-52.66,52.659C82.923,438.291,81.255,438.928,79.588,438.928z"/>
	<path style="fill:#FFDE55;" d="M505.484,262.516h-74.473c-3.598,0-6.516-2.917-6.516-6.516s2.918-6.516,6.516-6.516h74.473
		c3.598,0,6.516,2.917,6.516,6.516S509.082,262.516,505.484,262.516z"/>
	<path style="fill:#FFDE55;" d="M80.988,262.516H6.516C2.918,262.516,0,259.599,0,256s2.918-6.516,6.516-6.516h74.472
		c3.598,0,6.516,2.917,6.516,6.516S84.586,262.516,80.988,262.516z"/>
</g>
<g>
	<path style="fill:#FFED9F;" d="M417.691,195.543c-2.556,0-4.983-1.515-6.022-4.024c-1.378-3.324,0.201-7.136,3.527-8.513
		l19.592-8.115c3.322-1.378,7.135,0.201,8.513,3.527c1.378,3.324-0.201,7.136-3.527,8.513l-19.592,8.115
		C419.368,195.383,418.522,195.543,417.691,195.543z"/>
	<path style="fill:#FFED9F;" d="M74.72,337.607c-2.557,0-4.983-1.515-6.022-4.024c-1.378-3.324,0.201-7.136,3.527-8.513
		l19.592-8.116c3.322-1.378,7.135,0.201,8.513,3.527c1.378,3.324-0.201,7.136-3.527,8.513l-19.592,8.116
		C76.397,337.447,75.551,337.607,74.72,337.607z"/>
	<path style="fill:#FFED9F;" d="M437.278,337.607c-0.832,0-1.675-0.16-2.491-0.498l-19.592-8.116
		c-3.325-1.377-4.905-5.189-3.527-8.513c1.377-3.325,5.19-4.902,8.513-3.527l19.592,8.116c3.325,1.377,4.905,5.189,3.527,8.513
		C442.262,336.092,439.836,337.607,437.278,337.607z"/>
	<path style="fill:#FFED9F;" d="M94.308,195.543c-0.832,0-1.675-0.16-2.491-0.498l-19.592-8.115
		c-3.325-1.377-4.905-5.189-3.527-8.513c1.377-3.325,5.19-4.903,8.513-3.527l19.592,8.115c3.325,1.377,4.905,5.189,3.527,8.513
		C99.29,194.028,96.864,195.543,94.308,195.543z"/>
	<path style="fill:#FFED9F;" d="M331.092,443.8c-2.556,0-4.983-1.515-6.022-4.024l-8.116-19.592
		c-1.378-3.324,0.201-7.136,3.527-8.513c3.321-1.378,7.135,0.201,8.513,3.527l8.116,19.592c1.378,3.324-0.201,7.136-3.527,8.513
		C332.769,443.64,331.923,443.8,331.092,443.8z"/>
	<path style="fill:#FFED9F;" d="M189.029,100.828c-2.557,0-4.983-1.515-6.022-4.024l-8.116-19.592
		c-1.378-3.324,0.201-7.136,3.527-8.513c3.322-1.378,7.135,0.201,8.513,3.527l8.116,19.592c1.378,3.324-0.201,7.136-3.527,8.513
		C190.705,100.668,189.859,100.828,189.029,100.828z"/>
	<path style="fill:#FFED9F;" d="M180.908,443.8c-0.832,0-1.675-0.16-2.491-0.498c-3.325-1.377-4.905-5.189-3.527-8.513l8.116-19.592
		c1.377-3.325,5.189-4.902,8.513-3.527c3.325,1.377,4.905,5.189,3.527,8.513l-8.116,19.592
		C185.89,442.285,183.464,443.8,180.908,443.8z"/>
	<path style="fill:#FFED9F;" d="M322.971,100.828c-0.832,0-1.675-0.16-2.491-0.498c-3.325-1.377-4.905-5.189-3.527-8.513
		l8.116-19.592c1.377-3.325,5.188-4.903,8.513-3.527s4.905,5.189,3.527,8.513l-8.116,19.592
		C327.954,99.313,325.528,100.828,322.971,100.828z"/>
</g>
<g>
	<path style="fill:#FFDE55;" d="M432.412,438.928c-1.667,0-3.335-0.636-4.607-1.908l-52.661-52.659c-2.545-2.545-2.545-6.67,0-9.214
		c2.542-2.543,6.671-2.545,9.213,0l52.661,52.659c2.545,2.545,2.545,6.67,0,9.214C435.747,438.291,434.079,438.928,432.412,438.928z
		"/>
	<path style="fill:#FFDE55;" d="M132.248,138.764c-1.668,0-3.335-0.636-4.607-1.908l-52.66-52.661c-2.545-2.545-2.545-6.67,0-9.214
		c2.542-2.545,6.671-2.543,9.213,0l52.66,52.661c2.545,2.545,2.545,6.67,0,9.214C135.582,138.127,133.914,138.764,132.248,138.764z"
		/>
</g>
<g>
	<path style="fill:#495E77;" d="M241.053,219.239c0,23.362-18.943,42.304-42.304,42.304c-7.025,0-13.659-1.718-19.488-4.75
		c-13.553-7.049-22.817-21.217-22.817-37.554c0-23.362,18.943-42.304,42.304-42.304c8.139,0,15.744,2.298,22.201,6.291
		C233.009,190.676,241.053,204.016,241.053,219.239z"/>
	<circle style="fill:#495E77;" cx="313.249" cy="219.234" r="42.306"/>
</g>
<path style="fill:#333333;" d="M309.349,285.935c0,14.796-6.03,28.195-15.756,37.85c-9.643,9.584-22.923,15.507-37.589,15.507
	c-14.666,0-27.958-5.923-37.601-15.495c-9.726-9.667-15.756-23.065-15.756-37.862L309.349,285.935L309.349,285.935z"/>
<path style="fill:#F24141;" d="M293.593,323.785c-9.643,9.584-22.923,15.507-37.589,15.507c-14.666,0-27.958-5.923-37.601-15.495
	c6.089-14.773,20.625-25.174,37.601-25.174C272.968,298.623,287.504,309.013,293.593,323.785z"/>
<g>
	<path style="fill:#62788E;" d="M241.053,219.239c0,23.362-18.943,42.304-42.304,42.304c-7.025,0-13.659-1.718-19.488-4.75
		c13.813-14.571,31.062-38.395,41.688-73.568C233.009,190.676,241.053,204.016,241.053,219.239z"/>
	<path style="fill:#62788E;" d="M355.553,219.239c0,23.362-18.943,42.304-42.304,42.304c-7.025,0-13.659-1.718-19.488-4.75
		c13.813-14.571,31.062-38.395,41.688-73.568C347.509,190.676,355.553,204.016,355.553,219.239z"/>
</g>
<path style="fill:#F24141;" d="M387.728,191.426c-2.354-2.722-6.467-3.021-9.191-0.668l-18.175,15.709
	c-5.63-20.743-24.614-36.048-47.115-36.048c-24.71,0-45.177,18.457-48.373,42.306h-17.75c-3.196-23.848-23.664-42.306-48.373-42.306
	c-22.502,0-41.487,15.306-47.115,36.052l-18.177-15.712c-2.724-2.353-6.837-2.054-9.191,0.668c-2.353,2.722-2.053,6.837,0.668,9.191
	l25.101,21.695c1.592,25.493,22.827,45.748,48.715,45.748c24.71,0,45.177-18.457,48.373-42.306h17.75
	c3.196,23.848,23.664,42.306,48.373,42.306c25.888,0,47.124-20.257,48.715-45.752l25.097-21.692
	C389.782,198.264,390.081,194.149,387.728,191.426z M198.751,255.03c-19.734,0-35.79-16.055-35.79-35.79s16.056-35.79,35.79-35.79
	s35.79,16.055,35.79,35.79S218.485,255.03,198.751,255.03z M313.248,255.03c-19.734,0-35.79-16.055-35.79-35.79
	s16.056-35.79,35.79-35.79c19.734,0,35.79,16.055,35.79,35.79S332.982,255.03,313.248,255.03z"/>
<g>
</g>
<g>
</g>
<g>
</g>
<g>
</g>
<g>
</g>
<g>
</g>
<g>
</g>
<g>
</g>
<g>
</g>
<g>
</g>
<g>
</g>
<g>
</g>
<g>
</g>
<g>
</g>
<g>
</g>
</svg>
